<?xml version="1.0" encoding="UTF-8" standalone="no"?>
<!-- Created with DrawBerry (http://raphaelbost.free.fr/) -->
<svg 
 	 width = "1000.000000" 
 	 height = "600.000000" 
xmlns:dc="http://purl.org/dc/elements/1.1/"
xmlns:cc="http://web.resource.org/cc/"
xmlns:rdf="http://www.w3.org/1999/02/22-rdf-syntax-ns#"
 xmlns:svg="http://www.w3.org/2000/svg"
 xmlns="http://www.w3.org/2000/svg" 
 xmlns:sodipodi="http://inkscape.sourceforge.net/DTD/sodipodi-0.dtd"
 xmlns:inkscape="http://www.inkscape.org/namespaces/inkscape"
 >
<g inkscape:label="Background" inkscape:groupmode="layer" id="Background">
<path  style="fill:#ff0007;fill-opacity:1.000000;stroke:#000000;stroke-width:1.000000px;stroke-opacity:1.000000;stroke-linecap:butt;stroke-linejoin:miter;" 
 d="M 0.000000,0.000000 L 300.000000,0.000000 L 300.000000,100.000000 L 0.000000,100.000000 L 0.000000,0.000000  z"  />
<path  style="fill:none;stroke:#000000;stroke-width:1.000000px;stroke-opacity:1.000000;stroke-linecap:butt;stroke-linejoin:miter;" 
 d="M 300.000000,60.000000 L 300.000000,60.000000 L 300.000000,60.000000 L 300.000000,60.000000 L 300.000000,60.000000  z"  />
<path  style="fill:#feff37;fill-opacity:1.000000;stroke:#000000;stroke-width:1.000000px;stroke-opacity:1.000000;stroke-linecap:butt;stroke-linejoin:miter;" 
 d="M 0.000000,200.000000 L 199.999985,200.000000 L 199.999985,300.000000 L 300.000000,300.000000 L 300.000000,100.000000 L 0.000000,100.000000 "  />
<path  style="fill:#df08ff;fill-opacity:1.000000;stroke:#000000;stroke-width:1.000000px;stroke-opacity:1.000000;stroke-linecap:butt;stroke-linejoin:miter;" 
 d="M 0.000000,400.000000 L 200.000000,400.000000 L 200.000000,200.000000 L 0.000000,200.000000 L 0.000000,400.000000  z"  />
<path  style="fill:#1fff4e;fill-opacity:1.000000;stroke:#000000;stroke-width:1.000000px;stroke-opacity:1.000000;stroke-linecap:butt;stroke-linejoin:miter;" 
 d="M 200.000000,300.000000 L 300.000000,300.000000 L 300.000000,500.000000 L 0.000000,500.000000 L 0.000000,400.000000 L 200.000000,400.000000 L 200.000000,300.000000  z"  />
<path  style="fill:none;stroke:#000000;stroke-width:1.000000px;stroke-opacity:1.000000;stroke-linecap:butt;stroke-linejoin:miter;" 
 d="M 0.000000,500.000000 L 300.000000,500.000000 "  />
<path  style="fill:#53c4ff;fill-opacity:1.000000;stroke:#000000;stroke-width:1.000000px;stroke-opacity:1.000000;stroke-linecap:butt;stroke-linejoin:miter;" 
 d="M 0.000000,500.000000 L 300.000000,500.000000 L 300.000000,600.000000 L 0.000000,600.000000 L 0.000000,500.000000  z"  />
</g>
</svg>
