<?xml version="1.0" encoding="UTF-8"?>
<svg width="32px" height="32px" viewBox="0 0 32 32" version="1.1" xmlns="http://www.w3.org/2000/svg" xmlns:xlink="http://www.w3.org/1999/xlink">
    <title>Bread</title>
    <g id="Bread" stroke="none" stroke-width="1" fill="none" fill-rule="evenodd">
        <g transform="translate(0.000000, 2.000000)" fill="#B0ADAD">
            <path d="M7.9602649,5.08609272 L25.0993377,5.08609272 C25.5674997,5.08609272 25.9470199,5.46561293 25.9470199,5.93377483 L25.9470199,26.5960265 C25.9470199,27.0641884 25.5674997,27.4437086 25.0993377,27.4437086 L6.79470199,27.4437086 C6.32654008,27.4437086 5.94701987,27.0641884 5.94701987,26.5960265 L5.94701987,7.09933775 C5.94701987,5.98745322 6.84838037,5.08609272 7.9602649,5.08609272 Z" id="Rectangle"></path>
            <path d="M15.9470199,13.1553692 C24.7835759,13.1553692 32,16.28637 32,10.4918701 C32,4.69737026 24.836556,0 16,0 C7.163444,0 0,4.69737026 0,10.4918701 C0,16.28637 7.11046387,13.1553692 15.9470199,13.1553692 Z" id="Oval"></path>
        </g>
    </g>
</svg>